{"images":[{"uri":"baseColor_2.png","name":"baseColor_2.png"},{"uri":"baseColor_3.png","name":"baseColor_3.png"},{"uri":"baseColor_4.png","name":"baseColor_4.png"},{"uri":"baseColor_1.png","name":"baseColor_1.png"},{"uri":"normal_2.png","name":"normal_2.png"},{"uri":"normal_3.png","name":"normal_3.png"},{"uri":"normal_1.png","name":"normal_1.png"}],"accessors":[{"componentType":5126,"max":[2.592921495437622,5.1019673347473145,-95.65614318847656],"bufferView":0,"count":194,"type":"VEC3","min":[-2.5999016761779785,3.9426214694976807,-97.33236694335938],"byteOffset":0},{"componentType":5126,"bufferView":0,"count":194,"type":"VEC3","byteOffset":12},{"componentType":5126,"bufferView":0,"count":194,"type":"VEC2","byteOffset":24},{"componentType":5123,"bufferView":1,"count":528,"type":"SCALAR","byteOffset":0},{"componentType":5123,"bufferView":1,"count":23859,"type":"SCALAR","byteOffset":1056},{"componentType":5123,"bufferView":1,"count":8784,"type":"SCALAR","byteOffset":48776},{"componentType":5123,"bufferView":1,"count":10107,"type":"SCALAR","byteOffset":66344},{"componentType":5123,"bufferView":1,"count":20337,"type":"SCALAR","byteOffset":86560},{"componentType":5123,"bufferView":1,"count":48,"type":"SCALAR","byteOffset":127236},{"componentType":5126,"max":[14.101180076599121,12.74621868133545,-57.55012893676758],"bufferView":2,"count":10195,"type":"VEC3","min":[-14.597065925598145,-18.14507293701172,-92.97422790527344],"byteOffset":0},{"componentType":5126,"bufferView":2,"count":10195,"type":"VEC3","byteOffset":12},{"componentType":5126,"bufferView":2,"count":10195,"type":"VEC2","byteOffset":24},{"componentType":5126,"max":[34.83740234375,17.921537399291992,-58.10886764526367],"bufferView":3,"count":3296,"type":"VEC3","min":[-34.83740234375,-9.910650253295898,-87.27510070800781],"byteOffset":0},{"componentType":5126,"bufferView":3,"count":3296,"type":"VEC3","byteOffset":12},{"componentType":5126,"bufferView":3,"count":3296,"type":"VEC2","byteOffset":24},{"componentType":5126,"max":[13.325919151306152,9.44966983795166,0.002116951160132885],"bufferView":4,"count":3909,"type":"VEC3","min":[-15.002148628234863,-12.550658226013184,-63.1375617980957],"byteOffset":0},{"componentType":5126,"bufferView":4,"count":3909,"type":"VEC3","byteOffset":12},{"componentType":5126,"bufferView":4,"count":3909,"type":"VEC2","byteOffset":24},{"componentType":5126,"max":[7.801421642303467,10.581151008605957,-85.82235717773438],"bufferView":5,"count":9210,"type":"VEC3","min":[-7.431242942810059,-9.351889610290527,-105.32233428955078],"byteOffset":0},{"componentType":5126,"bufferView":5,"count":9210,"type":"VEC3","byteOffset":12},{"componentType":5126,"bufferView":5,"count":9210,"type":"VEC2","byteOffset":24},{"componentType":5126,"max":[4.721373081207275,7.941083908081055,-93.924072265625],"bufferView":6,"count":27,"type":"VEC3","min":[-4.721373081207275,5.088006973266602,-97.55584716796875],"byteOffset":0},{"componentType":5126,"bufferView":6,"count":27,"type":"VEC3","byteOffset":12},{"componentType":5126,"bufferView":6,"count":27,"type":"VEC2","byteOffset":24}],"extensionsUsed":["KHR_materials_specular"],"textures":[{"source":0,"sampler":0},{"source":1,"sampler":0},{"source":2,"sampler":0},{"source":3,"sampler":0},{"source":4,"sampler":0},{"source":5,"sampler":0},{"source":6,"sampler":0}],"buffers":[{"byteLength":985924,"uri":"afc75be6236949e58121651a117148b2.bin"}],"bufferViews":[{"byteLength":6208,"byteStride":32,"target":34962,"byteOffset":0,"buffer":0},{"byteLength":127332,"target":34963,"byteOffset":6208,"buffer":0},{"byteLength":326240,"byteStride":32,"target":34962,"byteOffset":133540,"buffer":0},{"byteLength":105472,"byteStride":32,"target":34962,"byteOffset":459780,"buffer":0},{"byteLength":125088,"byteStride":32,"target":34962,"byteOffset":565252,"buffer":0},{"byteLength":294720,"byteStride":32,"target":34962,"byteOffset":690340,"buffer":0},{"byteLength":864,"byteStride":32,"target":34962,"byteOffset":985060,"buffer":0}],"samplers":[{"magFilter":9729,"minFilter":9987}],"scene":0,"nodes":[{"name":"body_1","mesh":0},{"name":"body_2","mesh":1},{"name":"body_3","mesh":2},{"name":"body_4","mesh":3},{"name":"body_5","mesh":4},{"name":"body_6","mesh":5},{"rotation":[0.7071068286895752,0,0,0.7071068286895752],"scale":[0.009999999776482582,0.009999999776482582,0.009999999776482582],"children":[0,1,2,3,4,5],"name":"Body","translation":[0,0.000021174374824040215,0.0011175899049742088]}],"materials":[{"normalTexture":{"index":6},"pbrMetallicRoughness":{"roughnessFactor":0.6535898447036743,"baseColorFactor":[1,1,1,1],"baseColorTexture":{"index":3},"metallicFactor":0.5},"extensions":{"KHR_materials_specular":{"specularFactor":0.3,"specularColorFactor":[2,2,2]}},"name":"Material__59","doubleSided":true,"alphaMode":"BLEND"},{"normalTexture":{"index":4},"pbrMetallicRoughness":{"roughnessFactor":0.6535898447036743,"baseColorFactor":[1,1,1,1],"baseColorTexture":{"index":0},"metallicFactor":0.5},"extensions":{"KHR_materials_specular":{"specularFactor":0.3,"specularColorFactor":[2,2,2]}},"name":"Material__64","doubleSided":true,"alphaMode":"BLEND"},{"normalTexture":{"index":5},"pbrMetallicRoughness":{"roughnessFactor":0.6535898447036743,"baseColorFactor":[1,1,1,1],"baseColorTexture":{"index":1},"metallicFactor":0.5},"extensions":{"KHR_materials_specular":{"specularFactor":0.3,"specularColorFactor":[2,2,2]}},"name":"Material__66","doubleSided":true,"alphaMode":"BLEND"},{"normalTexture":{"index":4},"pbrMetallicRoughness":{"roughnessFactor":0.6535898447036743,"baseColorFactor":[1,1,1,1],"baseColorTexture":{"index":2},"metallicFactor":0.5},"extensions":{"KHR_materials_specular":{"specularFactor":0.3,"specularColorFactor":[2,2,2]}},"name":"Material__67","doubleSided":true,"alphaMode":"BLEND"}],"scenes":[{"nodes":[6],"name":"Scene"}],"asset":{"generator":"CG美术之家","source":"https://www.cgmszj.com/model/109359.html","version":"2.0"},"meshes":[{"primitives":[{"mode":4,"indices":3,"material":0,"attributes":{"POSITION":0,"TEXCOORD_0":2,"NORMAL":1}}],"name":"Mesh"},{"primitives":[{"mode":4,"indices":4,"material":1,"attributes":{"POSITION":9,"TEXCOORD_0":11,"NORMAL":10}}],"name":"Mesh.001"},{"primitives":[{"mode":4,"indices":5,"material":2,"attributes":{"POSITION":12,"TEXCOORD_0":14,"NORMAL":13}}],"name":"Mesh.002"},{"primitives":[{"mode":4,"indices":6,"material":3,"attributes":{"POSITION":15,"TEXCOORD_0":17,"NORMAL":16}}],"name":"Mesh.003"},{"primitives":[{"mode":4,"indices":7,"material":0,"attributes":{"POSITION":18,"TEXCOORD_0":20,"NORMAL":19}}],"name":"Mesh.004"},{"primitives":[{"mode":4,"indices":8,"material":0,"attributes":{"POSITION":21,"TEXCOORD_0":23,"NORMAL":22}}],"name":"Mesh.005"}]}