{"images":[{"uri":"Aoi_Skin_color.png","name":"Aoi_Skin_color.png"},{"uri":"Haruka_Swimsuit.png","name":"Haruka_Swimsuit.png"},{"uri":"Haruka_Hair_blonde.png","name":"Haruka_Hair_blonde.png"}],"accessors":[{"componentType":5123,"bufferView":0,"count":158430,"type":"SCALAR","byteOffset":0},{"componentType":5123,"bufferView":0,"count":154914,"type":"SCALAR","byteOffset":316860},{"componentType":5123,"bufferView":0,"count":45054,"type":"SCALAR","byteOffset":626688},{"componentType":5123,"bufferView":0,"count":43257,"type":"SCALAR","byteOffset":716796},{"componentType":5123,"bufferView":0,"count":50496,"type":"SCALAR","byteOffset":803312},{"componentType":5123,"bufferView":0,"count":50496,"type":"SCALAR","byteOffset":904304},{"componentType":5126,"max":[0.007195358630269766,-0.0002505719312466681,0.004943625070154667],"bufferView":1,"count":29356,"type":"VEC3","min":[-0.005731255281716585,-0.04569610580801964,-0.004529969766736031],"byteOffset":0},{"componentType":5126,"bufferView":1,"count":29356,"type":"VEC3","byteOffset":12},{"componentType":5126,"bufferView":1,"count":29356,"type":"VEC4","byteOffset":24},{"componentType":5126,"bufferView":1,"count":29356,"type":"VEC2","byteOffset":40},{"componentType":5126,"max":[0.007245073094964027,-0.00019093399168923497,0.005002316553145647],"bufferView":2,"count":28844,"type":"VEC3","min":[-0.005789239890873432,-0.04575297236442566,-0.0045889499597251415],"byteOffset":0},{"componentType":5126,"bufferView":2,"count":28844,"type":"VEC3","byteOffset":12},{"componentType":5126,"bufferView":2,"count":28844,"type":"VEC4","byteOffset":24},{"componentType":5126,"bufferView":2,"count":28844,"type":"VEC2","byteOffset":40},{"componentType":5126,"max":[0.006972192320972681,-0.026342220604419708,0.010819701477885246],"bufferView":3,"count":29900,"type":"VEC3","min":[-0.006277045235037804,-0.04669305309653282,-0.0027334499172866344],"byteOffset":0},{"componentType":5126,"bufferView":3,"count":29900,"type":"VEC3","byteOffset":12},{"componentType":5126,"bufferView":3,"count":29900,"type":"VEC4","byteOffset":24},{"componentType":5126,"bufferView":3,"count":29900,"type":"VEC2","byteOffset":40},{"componentType":5126,"max":[0.007006156258285046,-0.026286298409104347,0.010854031890630722],"bufferView":4,"count":28710,"type":"VEC3","min":[-0.006318290252238512,-0.04675264656543732,-0.0027892899233847857],"byteOffset":0},{"componentType":5126,"bufferView":4,"count":28710,"type":"VEC3","byteOffset":12},{"componentType":5126,"bufferView":4,"count":28710,"type":"VEC4","byteOffset":24},{"componentType":5126,"bufferView":4,"count":28710,"type":"VEC2","byteOffset":40},{"componentType":5126,"max":[0.005019661504775286,-0.02405189909040928,0.004410148598253727],"bufferView":5,"count":8716,"type":"VEC3","min":[-0.0045931595377624035,-0.03851731866598129,-0.004541370086371899],"byteOffset":0},{"componentType":5126,"bufferView":5,"count":8716,"type":"VEC3","byteOffset":12},{"componentType":5126,"bufferView":5,"count":8716,"type":"VEC4","byteOffset":24},{"componentType":5126,"bufferView":5,"count":8716,"type":"VEC2","byteOffset":40},{"componentType":5126,"max":[0.005067153833806515,-0.024003399536013603,0.004439692012965679],"bufferView":6,"count":8716,"type":"VEC3","min":[-0.004621719941496849,-0.038541559129953384,-0.004587419796735048],"byteOffset":0},{"componentType":5126,"bufferView":6,"count":8716,"type":"VEC3","byteOffset":12},{"componentType":5126,"bufferView":6,"count":8716,"type":"VEC4","byteOffset":24},{"componentType":5126,"bufferView":6,"count":8716,"type":"VEC2","byteOffset":40}],"textures":[{"source":0,"sampler":0},{"source":1,"sampler":0},{"source":2,"sampler":0}],"buffers":[{"byteLength":7448912,"uri":"buffer.bin"}],"bufferViews":[{"byteLength":1005296,"target":34963,"byteOffset":0,"buffer":0},{"byteLength":1409088,"byteStride":48,"target":34962,"byteOffset":1005296,"buffer":0},{"byteLength":1384512,"byteStride":48,"target":34962,"byteOffset":2414384,"buffer":0},{"byteLength":1435200,"byteStride":48,"target":34962,"byteOffset":3798896,"buffer":0},{"byteLength":1378080,"byteStride":48,"target":34962,"byteOffset":5234096,"buffer":0},{"byteLength":418368,"byteStride":48,"target":34962,"byteOffset":6612176,"buffer":0},{"byteLength":418368,"byteStride":48,"target":34962,"byteOffset":7030544,"buffer":0}],"samplers":[{"magFilter":9729,"minFilter":9987}],"scene":0,"nodes":[{"children":[1],"name":"RootNode","translation":[-0.04633914213627577,-0.01909338576207675,0.31325548070487386]},{"rotation":[-0.707106828689575,0,0,0.707106709480286],"children":[2],"name":"Aoi - Bikini Girl"},{"children":[3],"name":"RootNode"},{"rotation":[-0.70710688829422,0,0,0.707106709480286],"scale":[100,99.9999847412109,99.9999847412109],"children":[4,5,6,7,8,9],"name":"Aoi"},{"name":"Aoi_Skin_0","mesh":0},{"name":"Aoi_Outline-black_0","mesh":1},{"name":"Aoi_Hair_0","mesh":2},{"name":"Aoi_Hair Outline_0","mesh":3},{"name":"Aoi_Swimsuit 1_0","mesh":4},{"name":"Aoi_cs_solid_black.001_0","mesh":5}],"materials":[{"pbrMetallicRoughness":{"baseColorFactor":[1,1,1,1],"baseColorTexture":{"index":0},"metallicFactor":0},"extensions":{"KHR_materials_specular":{"specularFactor":0.3}},"name":"Skin"},{"pbrMetallicRoughness":{"baseColorFactor":[0,0,0,1],"metallicFactor":0.400000005960464},"extensions":{"KHR_materials_specular":{"specularFactor":0.3}},"name":"Outline-black"},{"pbrMetallicRoughness":{"baseColorFactor":[1,1,1,1],"baseColorTexture":{"index":2},"metallicFactor":0},"extensions":{"KHR_materials_specular":{"specularFactor":0.3}},"name":"Hair"},{"pbrMetallicRoughness":{"baseColorFactor":[0.08919350686224783,0.052841625522879035,0.025371276904734584,1],"metallicFactor":0.400000005960464},"extensions":{"KHR_materials_specular":{"specularFactor":0.3}},"name":"Hair Outline"},{"pbrMetallicRoughness":{"baseColorFactor":[1,1,1,1],"baseColorTexture":{"index":1},"metallicFactor":0},"extensions":{"KHR_materials_specular":{"specularFactor":0.3}},"name":"Swimsuit 1"},{"pbrMetallicRoughness":{"baseColorFactor":[0,0,0,1],"metallicFactor":0.400000005960464},"extensions":{"KHR_materials_specular":{"specularFactor":0.3}},"name":"cs_solid_black.001"}],"scenes":[{"nodes":[0],"name":"Root Scene"}],"asset":{"generator":"CG美术之家","source":"https://www.cgmszj.com/model/102755.html","version":"2.0"},"meshes":[{"primitives":[{"mode":4,"indices":0,"material":0,"attributes":{"COLOR_0":8,"POSITION":6,"TEXCOORD_0":9,"NORMAL":7}}],"name":"Aoi_Skin_0"},{"primitives":[{"mode":4,"indices":1,"material":1,"attributes":{"COLOR_0":12,"POSITION":10,"TEXCOORD_0":13,"NORMAL":11}}],"name":"Aoi_Outline-black_0"},{"primitives":[{"mode":4,"indices":2,"material":2,"attributes":{"COLOR_0":16,"POSITION":14,"TEXCOORD_0":17,"NORMAL":15}}],"name":"Aoi_Hair_0"},{"primitives":[{"mode":4,"indices":3,"material":3,"attributes":{"COLOR_0":20,"POSITION":18,"TEXCOORD_0":21,"NORMAL":19}}],"name":"Aoi_Hair Outline_0"},{"primitives":[{"mode":4,"indices":4,"material":4,"attributes":{"COLOR_0":24,"POSITION":22,"TEXCOORD_0":25,"NORMAL":23}}],"name":"Aoi_Swimsuit 1_0"},{"primitives":[{"mode":4,"indices":5,"material":5,"attributes":{"COLOR_0":28,"POSITION":26,"TEXCOORD_0":29,"NORMAL":27}}],"name":"Aoi_cs_solid_black.001_0"}]}